<svg id="Calque_1" data-name="Calque 1" xmlns="http://www.w3.org/2000/svg" viewBox="0 0 262.73 136.74"><defs><style>.cls-1{fill:#f2e620;}</style></defs><title>logo100K</title><polygon class="cls-1" points="97.9 20.12 97.9 90.62 85.49 78.21 85.49 29.3 94.67 20.12 97.9 20.12"/><rect class="cls-1" x="103.36" y="20.12" width="12.41" height="0.03"/><rect class="cls-1" x="121.22" y="20.12" width="12.41" height="0.03"/><rect class="cls-1" x="139.08" y="20.12" width="12.41" height="0.03"/><path class="cls-1" d="M103.36,20.14V95.58h30.27V20.14Zm17.86,63h-5.45V32.55h5.45Z"/><path class="cls-1" d="M169.36,20.12H157v0H139.09V95.58h30.27V63.38l-9.63-9.63,9.63-9.62ZM157,83.17h-5.46V32.55H157Z"/><polygon class="cls-1" points="218.86 95.58 201.31 95.58 159.48 53.75 193.13 20.11 210.67 20.11 177.03 53.75 218.86 95.58"/><polygon class="cls-1" points="98.45 95.58 80.9 95.58 39.15 53.84 39.24 53.76 39.15 53.67 72.71 20.11 90.26 20.11 56.62 53.76 98.45 95.58"/><path class="cls-1" d="M247.78,14.76v86h-233v-86h233M259.55,3H3V112.51H259.55V3Z"/><path class="cls-1" d="M177.87,122.91h-4.22v2.26h3.85v3h-3.85v5.3h-3.51v-13.5h7.73Z"/><path class="cls-1" d="M188.58,122.91h-4.17v2.26h3.94v3h-3.94v2.33h4.17v3H180.9v-13.5h7.68Z"/><path class="cls-1" d="M199.45,123.39a4.34,4.34,0,0,0-1.14-.69,3.22,3.22,0,0,0-1.11-.22,1.81,1.81,0,0,0-1.11.32,1,1,0,0,0-.43.85.87.87,0,0,0,.21.59,1.92,1.92,0,0,0,.57.4,4.71,4.71,0,0,0,.78.29l.87.27a5.54,5.54,0,0,1,2.52,1.53,3.81,3.81,0,0,1,.8,2.5,4.88,4.88,0,0,1-.35,1.88,4.06,4.06,0,0,1-1,1.45,4.73,4.73,0,0,1-1.65.93,6.89,6.89,0,0,1-2.21.33,8.18,8.18,0,0,1-4.75-1.52l1.5-2.83a6.17,6.17,0,0,0,1.56,1,3.74,3.74,0,0,0,1.53.35,1.83,1.83,0,0,0,1.28-.4,1.19,1.19,0,0,0,.42-.89,1.22,1.22,0,0,0-.11-.53,1.06,1.06,0,0,0-.36-.41,2.46,2.46,0,0,0-.65-.35c-.27-.11-.6-.23-1-.36s-.9-.3-1.33-.48a4,4,0,0,1-1.17-.69,3.1,3.1,0,0,1-.82-1.08A3.84,3.84,0,0,1,192,124a4.78,4.78,0,0,1,.33-1.81,4,4,0,0,1,.93-1.4,4.21,4.21,0,0,1,1.47-.91,5.64,5.64,0,0,1,1.94-.32,8.32,8.32,0,0,1,2.1.28,9.52,9.52,0,0,1,2.09.81Z"/><path class="cls-1" d="M209.75,122.91v10.53h-3.51V122.91h-2.88v-3h9.28v3Z"/><path class="cls-1" d="M218.63,119.94v13.5h-3.51v-13.5Z"/><path class="cls-1" d="M224.8,119.94l3.26,8.22,3.27-8.22h3.82l-5.7,13.5h-2.79L221,119.94Z"/><path class="cls-1" d="M244.69,131.1h-5l-.81,2.34h-3.74l5.14-13.5h3.83l5.14,13.5H245.5Zm-.93-2.67-1.57-4.5-1.58,4.5Z"/><path class="cls-1" d="M255.22,119.94v10.53h4.21v3h-7.72v-13.5Z"/></svg>