<!-- Generator: Adobe Illustrator 22.1.0, SVG Export Plug-In  -->
<svg version="1.1"
	 xmlns="http://www.w3.org/2000/svg" xmlns:xlink="http://www.w3.org/1999/xlink" xmlns:a="http://ns.adobe.com/AdobeSVGViewerExtensions/3.0/"
	 x="0px" y="0px" width="511.609px" height="84.215px" viewBox="0 0 511.609 84.215"
	 style="enable-background:new 0 0 511.609 84.215;" xml:space="preserve">
<style type="text/css">
	.st0{fill:none;stroke:#4E55A2;stroke-width:4;stroke-miterlimit:10;}
	.st1{fill:#4E55A2;}
	.st2{fill:none;stroke:#3C5A99;stroke-width:4;stroke-miterlimit:10;}
	.st3{fill:#A2B1CE;}
	.st4{fill:#E8ECF3;}
	.st5{fill:#A7B5D1;}
	.st6{fill-rule:evenodd;clip-rule:evenodd;fill:#4E55A2;}
</style>
<defs>
</defs>
<g>
	
		<ellipse transform="matrix(0.2298 -0.9732 0.9732 0.2298 -8.5479 73.4141)" class="st0" cx="42.107" cy="42.107" rx="40.107" ry="40.107"/>
	<g>
		<path class="st1" d="M14.43,56.751c0-0.29,0-0.579,0-0.869c0.356-0.413,0.732-0.764,1.311-0.879
			c4.563-0.904,7.615-3.813,9.917-7.632c1.936-3.211,1.625-3.945-1.942-5.208c-0.204-0.072-0.414-0.131-0.615-0.214
			c-0.771-0.317-1.533-0.655-2.17-1.208c-1.598-1.388-0.653-3.389,1.231-3.842c1.377-0.332,2.576,0.554,3.912,0.721
			c0.893,0.111,1.25-0.189,1.14-1.141c-0.282-2.449-0.275-4.913-0.16-7.373c0.219-4.69,2.526-8.263,6.434-10.579
			c5.706-3.381,11.669-3.424,17.416-0.053c3.587,2.104,5.902,5.29,6.405,9.56c0.327,2.779,0.197,5.563-0.022,8.344
			c-0.095,1.208,0.152,1.43,1.346,1.15c1.483-0.347,2.726-1.112,4.267-0.435c0.825,0.362,1.544,1.142,1.522,2.042
			c-0.015,0.617-0.375,1.184-0.84,1.589c-0.712,0.62-1.641,0.965-2.505,1.315c-0.67,0.271-1.367,0.482-2.019,0.788
			c-1.347,0.632-1.735,1.465-1.104,2.799c2.183,4.614,5.39,8.118,10.579,9.334c0.633,0.148,1.14,0.407,1.525,0.92
			c0,0.29,0,0.58,0,0.869c-0.492,1.012-1.371,1.569-2.37,1.947c-1.013,0.384-2.033,0.814-3.123,0.884
			c-1.504,0.096-2.295,0.752-2.525,2.318c-0.219,1.49-0.667,1.701-2.185,1.578c-0.359-0.029-0.717-0.095-1.072-0.159
			c-2.974-0.528-5.765-0.227-8.211,1.748c-0.477,0.385-1.007,0.707-1.523,1.042c-4.166,2.703-8.433,3.013-12.785,0.475
			c-1.186-0.692-2.311-1.49-3.462-2.242c-0.953-0.623-1.977-0.97-3.12-1.144c-1.804-0.273-3.532,0.132-5.287,0.325
			c-0.902,0.1-1.774-0.158-1.825-1.091c-0.123-2.249-1.501-2.799-3.392-3.007c-0.881-0.097-1.751-0.455-2.582-0.802
			C15.686,58.247,14.862,57.709,14.43,56.751z"/>
	</g>
</g>
<g>
	
		<ellipse transform="matrix(0.7071 -0.7071 0.7071 0.7071 13.5609 116.9537)" class="st0" cx="147.956" cy="42.107" rx="40.107" ry="40.107"/>
	<g>
		<path class="st1" d="M173.334,35.68c0-6.011-4.873-10.885-10.885-10.885h-28.231c-6.011,0-10.885,4.873-10.885,10.885v13.231
			c0,6.011,4.873,10.885,10.885,10.885h28.231c6.011,0,10.885-4.873,10.885-10.885V35.68z M155.522,42.962l-11.259,6.175
			c-0.489,0.265-0.93-0.09-0.93-0.646V35.816c0-0.564,0.454-0.917,0.944-0.638l11.336,6.5
			C156.114,41.963,156.029,42.688,155.522,42.962z"/>
	</g>
</g>
<g>
	
		<ellipse transform="matrix(0.2298 -0.9732 0.9732 0.2298 154.5111 279.4482)" class="st2" cx="253.805" cy="42.107" rx="40.107" ry="40.107"/>
	<path class="st3" d="M252.986,42.461c-0.027-0.192-0.053-0.384-0.08-0.576c0.077-1.173-0.094-2.381,0.507-3.477
		c0.189,0.163,0.379,0.326,0.568,0.49c1.255,1.037,0.202,2.389,0.485,3.559c-0.161,0.009-0.323,0.014-0.484,0.016
		C253.65,42.469,253.318,42.465,252.986,42.461z"/>
	<path class="st4" d="M254.698,41.18c-0.263,0.654-0.526,1.309-0.789,1.963c-0.352-0.69-2.261-1.378-0.003-2.072
		C254.17,41.107,254.434,41.144,254.698,41.18z"/>
	<path class="st5" d="M253.038,42.461c0.332,0.004,0.664,0.008,0.995,0.011c0.162,0.51,0.325,1.019,0.487,1.529
		c-0.542,0.358-0.024,0.679,0.036,1.016c-0.176,0.176-0.351,0.353-0.527,0.529c-0.422,0.206-0.503,0.586-0.51,1.003
		C252.508,45.287,253.216,43.822,253.038,42.461z"/>
	<path class="st6" d="M247.158,42.307v24.565c0,0.353,0.286,0.64,0.64,0.64h9.122c0.353,0,0.64-0.286,0.64-0.64V41.907h6.613
		c0.333,0,0.61-0.255,0.638-0.586l0.636-7.522c0.032-0.373-0.263-0.694-0.638-0.694h-7.249v-5.337c0-1.251,1.014-2.265,2.265-2.265
		h5.097c0.353,0,0.64-0.286,0.64-0.64v-7.522c0-0.353-0.286-0.64-0.64-0.64h-8.613c-5.054,0-9.151,4.097-9.151,9.151v7.252h-4.561
		c-0.353,0-0.64,0.286-0.64,0.64v7.522c0,0.353,0.286,0.64,0.64,0.64h4.561V42.307z"/>
</g>
<g>
	<path class="st1" d="M361.653,84.215c-23.218,0-42.107-18.89-42.107-42.107S338.435,0,361.653,0
		c23.218,0,42.108,18.89,42.108,42.107S384.871,84.215,361.653,84.215z M361.653,4c-21.013,0-38.107,17.095-38.107,38.107
		s17.095,38.107,38.107,38.107s38.108-17.095,38.108-38.107S382.666,4,361.653,4z M375.851,25.023c-1.721,0-3.116,1.395-3.116,3.116
		c0,1.721,1.395,3.116,3.116,3.116s3.116-1.395,3.116-3.116C378.967,26.418,377.572,25.023,375.851,25.023z M361.999,29.019
		c-7.217,0-13.089,5.872-13.089,13.089s5.872,13.089,13.089,13.089s13.088-5.872,13.088-13.089S369.216,29.019,361.999,29.019z
		 M361.999,50.492c-4.623,0-8.384-3.761-8.384-8.384c0-4.623,3.761-8.384,8.384-8.384s8.384,3.761,8.384,8.384
		C370.383,46.731,366.622,50.492,361.999,50.492z M388.409,31.23c0-8.817-7.148-15.964-15.965-15.964h-21.07
		c-8.817,0-15.965,7.147-15.965,15.964v21.072c0,8.817,7.148,15.964,15.965,15.964h21.07c8.817,0,15.965-7.147,15.965-15.964V31.23z
		 M383.409,52.302c0,6.055-4.909,10.964-10.965,10.964h-21.07c-6.056,0-10.965-4.909-10.965-10.964V31.23
		c0-6.055,4.909-10.964,10.965-10.964h21.07c6.056,0,10.965,4.909,10.965,10.964V52.302z"/>
</g>
<g>
	
		<ellipse transform="matrix(0.2298 -0.9732 0.9732 0.2298 320.6511 489.3752)" class="st0" cx="469.502" cy="42.107" rx="40.107" ry="40.107"/>
	<g>
		<path class="st1" d="M493.861,26.639c-1.569,0.71-3.297,1.141-4.99,1.426c0.804-0.135,1.989-1.591,2.463-2.179
			c0.723-0.898,1.324-1.921,1.662-3.026c0.043-0.086,0.076-0.195-0.01-0.26c-0.108-0.043-0.178-0.021-0.265,0.022
			c-1.89,1.013-3.846,1.748-5.927,2.268c-0.173,0.043-0.301,0-0.409-0.108c-0.172-0.195-0.334-0.378-0.518-0.53
			c-0.875-0.744-1.813-1.328-2.871-1.759c-1.389-0.566-2.908-0.806-4.404-0.709c-1.456,0.095-2.886,0.505-4.178,1.18
			c-1.295,0.677-2.451,1.618-3.371,2.753c-0.952,1.175-1.654,2.562-2.013,4.031c-0.347,1.419-0.318,2.822-0.107,4.257
			c0.032,0.238,0.011,0.27-0.204,0.238c-8.142-1.212-14.89-4.125-20.368-10.368c-0.238-0.271-0.367-0.271-0.562,0.021
			c-2.397,3.593-1.234,9.366,1.761,12.204c0.399,0.378,0.81,0.756,1.252,1.102c-0.161,0.033-2.154-0.183-3.93-1.102
			c-0.238-0.15-0.357-0.064-0.378,0.206c-0.022,0.388,0.011,0.745,0.064,1.167c0.46,3.643,2.983,7.012,6.437,8.326
			c0.41,0.173,0.864,0.324,1.306,0.399c-0.787,0.173-1.598,0.296-3.855,0.119c-0.281-0.054-0.388,0.086-0.281,0.356
			c1.696,4.623,5.358,5.999,8.1,6.782c0.367,0.064,0.734,0.064,1.103,0.15c-0.022,0.033-0.044,0.033-0.065,0.065
			c-0.91,1.387-4.063,2.418-5.531,2.932c-2.671,0.933-5.578,1.353-8.401,1.075c-0.452-0.066-0.547-0.061-0.669,0
			c-0.124,0.077-0.016,0.184,0.129,0.302c0.573,0.378,1.156,0.713,1.75,1.037c1.793,0.95,3.661,1.706,5.616,2.246
			c10.092,2.787,21.46,0.739,29.037-6.79c5.951-5.912,8.036-14.066,8.036-22.229c0-0.32,0.378-0.496,0.602-0.664
			c1.548-1.163,2.779-2.555,3.934-4.11c0.259-0.349,0.243-0.66,0.243-0.787c0-0.022,0-0.043,0-0.043
			C494.046,26.509,494.062,26.548,493.861,26.639z"/>
		<path class="st6" d="M459.316,62.278C463.501,62.278,459.517,62.278,459.316,62.278C459.867,62.278,459.294,62.278,459.316,62.278
			z"/>
		<path class="st6" d="M459.316,62.278C459.252,62.283,458.501,62.278,459.316,62.278C459.316,62.278,459.186,62.278,459.316,62.278
			z"/>
		<path class="st6" d="M460.98,62.321C460.98,62.238,461.855,62.321,460.98,62.321C460.98,62.278,461.087,62.321,460.98,62.321z"/>
		<path class="st6" d="M478.453,21.822c-0.054,0.043-0.129,0.043-0.204,0C478.323,21.822,478.399,21.822,478.453,21.822z"/>
	</g>
</g>
</svg>