<!-- Generator: Adobe Illustrator 22.1.0, SVG Export Plug-In  -->
<svg version="1.1"
	 xmlns="http://www.w3.org/2000/svg" xmlns:xlink="http://www.w3.org/1999/xlink" xmlns:a="http://ns.adobe.com/AdobeSVGViewerExtensions/3.0/"
	 x="0px" y="0px" width="84.215px" height="84.215px" viewBox="0 0 84.215 84.215"
	 style="enable-background:new 0 0 84.215 84.215;" xml:space="preserve">
<style type="text/css">
	.st0{fill:none;stroke:#F4E724;stroke-width:4;stroke-miterlimit:10;}
	.st1{fill:#F6E81D;}
</style>
<defs>
</defs>
<ellipse transform="matrix(0.7071 -0.7071 0.7071 0.7071 -17.4415 42.1075)" class="st0" cx="42.107" cy="42.107" rx="40.107" ry="40.107"/>
<g>
	<path class="st1" d="M67.485,35.68c0-6.011-4.873-10.885-10.885-10.885H28.37c-6.011,0-10.885,4.873-10.885,10.885v13.231
		c0,6.011,4.873,10.885,10.885,10.885h28.231c6.011,0,10.885-4.873,10.885-10.885V35.68z M49.674,42.962l-11.259,6.175
		c-0.489,0.265-0.93-0.09-0.93-0.646V35.816c0-0.564,0.454-0.917,0.944-0.638l11.336,6.5C50.266,41.963,50.181,42.688,49.674,42.962
		z"/>
</g>
</svg>